<?xml version="1.0" standalone="no"?>
<!DOCTYPE svg PUBLIC "-//W3C//DTD SVG 20010904//EN"
 "http://www.w3.org/TR/2001/REC-SVG-20010904/DTD/svg10.dtd">
<svg version="1.0" xmlns="http://www.w3.org/2000/svg"
 width="764.000000pt" height="764.000000pt" viewBox="0 0 764.000000 764.000000"
 preserveAspectRatio="xMidYMid meet">

<g transform="translate(0.000000,764.000000) scale(0.100000,-0.100000)"
fill="#000000" stroke="none">
<path d="M0 3820 l0 -3820 3820 0 3820 0 0 3820 0 3820 -3820 0 -3820 0 0
-3820z m5624 3470 c19 -22 50 -68 67 -102 44 -86 52 -205 20 -289 -21 -56 -96
-149 -119 -149 -22 0 -94 74 -120 124 -24 45 -27 62 -27 151 0 93 2 105 32
165 32 65 87 140 103 140 4 0 24 -18 44 -40z m-528 -402 c142 -54 221 -200
189 -347 -6 -28 -10 -31 -44 -31 -60 0 -150 51 -195 110 -46 60 -66 128 -66
222 l0 68 29 0 c16 0 55 -10 87 -22z m1267 -39 c-4 -138 -112 -291 -238 -338
-99 -37 -225 -27 -225 17 0 36 31 137 57 184 63 116 225 201 373 194 l35 -1
-2 -56z m-3455 -263 c450 -84 834 -317 1124 -681 184 -232 340 -595 372 -870
2 -22 8 -70 11 -107 l7 -68 127 -1 c69 -1 129 -1 133 0 3 0 60 -8 125 -19 205
-33 385 -94 581 -195 l122 -63 0 987 c0 542 4 991 8 998 12 19 55 24 82 10 25
-12 25 -15 30 -160 l5 -147 64 45 c77 54 121 60 147 20 26 -40 7 -66 -108
-143 l-103 -68 -5 -814 -5 -813 80 -67 c215 -181 376 -385 486 -615 135 -282
191 -535 188 -851 -2 -291 -53 -511 -184 -789 -204 -436 -594 -778 -1067 -936
-174 -59 -292 -79 -503 -85 -329 -11 -582 45 -880 194 -285 142 -556 395 -744
694 l-59 93 -278 3 -279 2 -250 -136 c-137 -75 -268 -146 -289 -157 l-39 -21
-23 28 c-13 15 -24 36 -24 47 0 24 70 70 240 157 69 35 129 68 134 73 12 11
12 11 -140 9 -154 -2 -166 7 -138 98 3 9 114 12 514 12 301 0 510 4 510 9 0 5
-15 49 -34 98 -60 157 -116 394 -116 489 l0 41 -130 7 c-360 18 -663 115 -960
307 -325 210 -603 559 -734 922 -37 102 -91 308 -101 387 -10 82 -13 343 -4
434 30 314 148 632 331 891 82 117 278 318 398 409 252 190 531 305 855 351
117 17 412 12 523 -9z m2127 -292 c103 -29 198 -118 238 -222 26 -67 23 -80
-27 -102 -75 -32 -127 -35 -203 -12 -91 28 -157 73 -209 145 -37 49 -92 182
-81 193 1 2 32 7 67 11 78 11 148 6 215 -13z m1305 -232 c0 -54 -36 -177 -72
-244 -71 -133 -211 -225 -354 -235 -84 -5 -130 6 -141 34 -11 29 16 151 47
213 16 32 54 84 84 115 87 89 244 152 384 154 l52 1 0 -38z m-1257 -373 c77
-26 125 -57 177 -116 54 -60 93 -143 98 -208 l4 -51 -43 -19 c-32 -15 -65 -20
-124 -19 -69 0 -89 4 -146 32 -77 37 -174 133 -213 211 -22 42 -56 152 -56
179 0 27 214 21 303 -9z m-3854 -3090 c46 -11 113 -33 150 -51 132 -62 253
-223 285 -378 13 -63 12 -65 -8 -68 -11 -2 -93 32 -184 78 -90 45 -166 80
-169 76 -3 -3 0 -19 7 -36 13 -31 78 -91 185 -170 l60 -44 -45 -9 c-28 -6 -69
-5 -109 2 -231 38 -398 252 -430 551 -4 39 -5 73 -2 76 10 10 173 -7 260 -27z
m325 -806 c16 -9 8 -18 -60 -74 -100 -81 -174 -149 -174 -160 0 -24 112 12
240 76 38 19 72 35 75 35 14 0 2 -48 -25 -106 -81 -169 -282 -265 -491 -234
-88 12 -179 37 -179 48 1 22 103 215 138 259 65 82 162 139 277 163 50 11 175
7 199 -7z m692 -184 c39 -24 109 -124 126 -182 7 -23 13 -89 13 -147 -1 -90
-5 -114 -27 -168 -31 -75 -78 -155 -123 -208 l-34 -39 -56 55 c-179 174 -237
404 -149 584 15 30 39 67 55 82 l28 27 21 -49 c12 -27 38 -100 58 -161 20 -62
39 -113 43 -113 21 0 29 244 10 308 -11 38 -9 39 35 11z"/>
<path d="M2385 6061 c-543 -99 -971 -536 -1060 -1082 -21 -128 -15 -351 13
-481 89 -412 362 -755 757 -951 83 -41 223 -92 232 -84 2 2 -3 17 -11 33 -30
60 -29 77 8 148 28 54 33 72 25 87 -14 28 -2 58 27 65 14 4 30 17 34 30 12 29
24 30 85 3 26 -12 66 -23 88 -25 22 -2 49 -11 59 -21 10 -9 49 -30 86 -47 91
-42 110 -56 112 -86 4 -51 -1 -59 -50 -87 -49 -27 -55 -35 -64 -95 -3 -15 -8
-33 -12 -39 -7 -12 111 -5 181 11 65 15 156 11 200 -9 55 -25 120 -100 134
-155 6 -25 11 -114 11 -198 -1 -179 18 -311 67 -461 l15 -49 28 84 c16 46 31
94 34 108 3 14 18 33 35 43 32 19 86 23 96 7 3 -5 15 -10 25 -10 10 0 29 -13
43 -30 14 -16 37 -32 53 -36 68 -17 114 -64 114 -116 0 -25 4 -28 33 -28 20 0
47 -10 67 -25 19 -14 42 -25 52 -25 27 0 76 -27 87 -49 14 -26 -2 -75 -37
-116 -19 -21 -32 -50 -37 -77 -12 -82 -16 -96 -34 -113 -11 -9 -31 -20 -47
-24 -29 -7 -32 -11 -59 -78 -10 -23 -26 -50 -36 -59 -11 -10 -19 -22 -19 -28
1 -22 158 -129 275 -186 374 -185 792 -184 1160 2 357 180 621 538 690 935 14
80 20 183 9 156 -3 -7 -12 -9 -20 -6 -13 5 -20 -17 -16 -57 3 -24 -20 -100
-29 -100 -14 0 -31 40 -69 160 -31 98 -40 115 -59 118 -12 2 -26 14 -31 27
-12 31 -24 37 -83 41 -27 2 -57 10 -66 18 -9 8 -34 18 -56 22 -22 4 -45 12
-52 18 -33 29 -43 36 -54 36 -7 0 -9 -8 -4 -22 3 -13 7 -29 7 -36 1 -6 4 -10
6 -7 3 3 11 -3 17 -12 8 -10 27 -17 50 -17 28 -1 42 -7 57 -27 18 -24 18 -29
5 -61 -17 -40 -52 -68 -138 -109 -76 -37 -99 -38 -99 -3 0 15 -27 81 -60 148
-60 120 -81 156 -94 156 -24 0 46 -201 99 -286 60 -94 63 -97 94 -89 61 15 79
16 85 6 14 -21 -36 -107 -99 -171 -98 -99 -111 -140 -90 -283 6 -46 -5 -70
-58 -119 -35 -33 -39 -41 -33 -72 6 -29 2 -40 -22 -68 -16 -18 -34 -47 -41
-64 -16 -41 -59 -72 -120 -86 -58 -13 -81 -2 -81 39 0 13 -12 49 -26 80 -15
30 -27 67 -29 82 -1 14 -7 40 -14 56 -20 47 -23 86 -13 134 13 55 -1 152 -29
204 -15 28 -19 48 -15 72 9 45 -16 95 -46 95 -12 0 -29 7 -39 16 -13 12 -22
13 -37 5 -11 -6 -54 -12 -96 -13 -62 -2 -79 0 -86 13 -5 8 -30 44 -56 79 -30
41 -47 73 -46 90 1 14 2 50 2 80 1 87 15 122 69 174 28 25 48 52 45 59 -14 37
122 99 225 102 36 2 71 4 76 5 26 6 44 -1 39 -15 -12 -30 5 -62 38 -74 18 -7
46 -19 62 -27 27 -14 31 -13 52 7 22 21 27 22 81 10 74 -16 107 -23 113 -22 7
0 28 89 22 95 -3 4 -20 6 -37 6 -52 0 -94 20 -111 51 -17 33 -43 38 -51 9 -5
-21 -33 -28 -33 -9 0 5 6 7 13 4 16 -9 -43 45 -76 69 -15 10 -27 25 -27 32 0
7 -4 16 -10 19 -23 14 -8 -37 20 -65 17 -17 30 -37 30 -45 0 -28 -30 -15 -52
24 -14 25 -30 39 -43 39 -11 0 -35 2 -54 5 -47 6 -66 -1 -81 -28 -7 -12 -22
-28 -34 -34 -11 -6 -36 -23 -55 -36 -54 -40 -120 -11 -105 45 3 14 7 33 8 43
1 21 23 37 52 37 11 0 30 10 42 23 23 25 29 47 12 47 -5 0 -10 5 -10 10 0 6 8
10 18 10 9 0 45 13 80 30 47 22 62 34 62 50 0 30 25 35 58 10 26 -19 37 -21
81 -15 29 4 57 14 64 21 28 35 54 57 75 65 30 12 28 29 -4 29 -14 0 -33 7 -42
16 -15 15 -14 18 13 40 25 19 27 24 12 29 -9 4 -35 -3 -59 -17 -37 -21 -43
-28 -44 -58 -1 -53 -2 -54 -34 -73 -28 -17 -29 -17 -40 3 -10 18 -17 21 -51
15 -37 -6 -39 -5 -55 28 -15 32 -15 35 2 56 10 11 24 21 32 21 7 0 37 22 65
48 59 54 130 92 173 92 42 0 229 -67 230 -82 0 -7 2 -16 2 -20 1 -4 18 0 37 8
19 8 51 16 71 19 20 2 41 8 48 13 22 18 69 23 98 11 24 -10 32 -9 47 5 9 9 25
16 35 16 16 0 16 2 -2 24 -55 71 -250 210 -376 271 -246 116 -528 152 -819
104 -110 -19 -134 -20 -172 -9 -76 21 -129 62 -159 121 -25 51 -26 58 -26 233
-1 355 -63 584 -230 836 -69 104 -282 325 -324 336 -16 4 -47 -6 -96 -31 -67
-34 -73 -35 -95 -21 -21 14 -26 14 -57 -7 -64 -44 -146 -86 -152 -79 -4 3 -11
1 -15 -6 -6 -9 -21 -8 -66 8 -32 11 -69 20 -82 20 -26 0 -45 31 -24 38 8 3 38
27 68 54 41 37 59 47 75 42 34 -10 107 6 129 29 17 19 34 23 112 27 l92 5 -65
34 c-73 38 -203 85 -300 107 -106 24 -375 27 -495 5z m155 -508 c49 -20 79
-50 106 -108 59 -125 3 -265 -129 -320 -138 -57 -317 60 -317 207 0 46 31 128
62 164 68 78 175 100 278 57z m475 -354 c144 -40 219 -203 154 -334 -42 -84
-115 -128 -209 -127 -99 1 -176 50 -216 137 -47 100 -17 213 75 281 65 47 129
61 196 43z m-757 -70 c4 -23 -26 -51 -52 -47 -25 4 -33 33 -15 54 16 19 63 14
67 -7z m-85 -36 c4 -2 7 -13 7 -24 0 -16 -5 -19 -22 -14 -71 20 -94 37 -65 48
12 6 65 -1 80 -10z m-185 -56 l3 -27 -59 6 c-70 8 -88 -6 -38 -30 24 -11 47
-14 86 -9 38 4 51 3 46 -5 -4 -7 3 -14 18 -18 45 -11 37 -30 -18 -47 -29 -10
-61 -17 -72 -17 -27 0 -106 29 -124 45 -8 8 -29 19 -45 25 l-30 12 25 19 c14
11 34 26 45 35 11 8 30 13 43 11 12 -2 22 0 22 4 0 10 58 28 80 26 8 -1 16
-14 18 -30z m291 -42 c131 -51 209 -96 249 -144 15 -19 7 -71 -15 -88 -23 -18
-122 -4 -146 20 l-20 20 29 24 c24 19 27 26 18 40 -13 22 -55 28 -83 14 -15
-9 -19 -18 -15 -44 5 -29 2 -33 -28 -46 -18 -8 -41 -16 -51 -16 -10 -1 -30
-13 -44 -27 -35 -35 -24 -62 37 -93 26 -13 62 -41 79 -62 29 -35 32 -36 48
-21 20 21 37 132 23 158 -6 10 -6 21 -2 24 11 6 105 -39 122 -59 16 -20 37
-19 48 2 9 15 11 14 25 -3 9 -10 36 -43 61 -73 25 -30 46 -61 46 -68 0 -7 4
-13 8 -13 12 0 53 -80 46 -91 -3 -5 -22 -7 -42 -3 -45 8 -66 24 -32 24 30 0
20 10 -25 26 -28 9 -37 9 -46 -2 -6 -8 -18 -14 -25 -14 -8 0 -14 -4 -14 -10 0
-5 9 -10 21 -10 24 0 49 -22 49 -43 0 -15 -54 -40 -64 -30 -9 9 -94 -46 -115
-75 -11 -16 -23 -41 -27 -58 -3 -16 -22 -43 -41 -59 -30 -26 -35 -36 -35 -78
-1 -56 -21 -61 -48 -12 -17 29 -19 30 -81 27 -71 -4 -106 -21 -115 -56 -8 -32
9 -139 22 -143 7 -2 24 7 39 22 26 23 39 29 58 26 4 -1 16 3 27 9 19 10 19 9
3 -22 -32 -65 -34 -70 -29 -75 3 -3 22 -6 43 -7 35 -1 38 -3 44 -38 3 -20 13
-48 22 -62 38 -58 0 -64 -52 -8 -59 63 -165 136 -188 130 -4 -1 -25 4 -45 11
-42 14 -81 61 -72 85 4 10 1 16 -7 16 -8 0 -31 32 -52 70 -20 39 -42 70 -47
70 -15 0 -12 -16 11 -70 12 -27 19 -55 17 -61 -5 -14 -50 63 -70 119 -7 20
-20 44 -28 52 -66 67 -84 114 -82 223 1 61 -1 70 -25 90 -14 12 -31 36 -38 52
-26 60 -94 133 -146 156 l-50 23 6 51 c4 27 14 66 23 85 14 28 22 34 42 32 31
-4 126 -4 200 1 39 2 66 -3 94 -16 31 -15 44 -17 63 -8 19 9 29 8 46 -4 28
-19 136 -20 182 -1 18 8 42 12 53 10 10 -3 24 2 32 11 7 9 9 15 4 13 -8 -2
-84 68 -84 78 0 9 39 3 45 -6 4 -6 16 -3 32 10 32 25 33 25 112 -5z m75 -984
c23 -10 53 -24 69 -30 17 -7 27 -18 27 -31 0 -27 -14 -25 -91 13 -47 22 -67
37 -66 50 2 22 10 21 61 -2z m1454 -179 c15 -15 46 -42 69 -60 23 -18 45 -42
48 -53 9 -27 -11 -49 -45 -49 -34 0 -99 -61 -107 -101 -4 -23 -11 -29 -32 -29
-15 0 -32 5 -39 12 -16 16 -66 -7 -58 -27 8 -22 -11 -65 -29 -65 -24 0 -30 31
-12 63 16 27 16 30 -3 57 -31 44 -69 70 -101 70 -50 0 -36 36 16 44 16 2 38
32 51 68 3 10 25 23 48 29 22 6 66 24 96 40 30 16 59 29 63 29 5 0 21 -12 35
-28z m682 -121 c5 -11 10 -29 10 -41 0 -11 7 -23 15 -26 21 -9 19 -51 -4 -64
-49 -26 -82 8 -40 41 23 17 23 19 4 19 -17 0 -21 7 -23 45 -2 49 18 62 38 26z
m-65 -78 c-7 -28 -21 -43 -42 -43 -23 0 -25 22 -2 46 31 34 53 32 44 -3z m883
-1325 c2 -15 -6 -48 -17 -74 -12 -26 -21 -53 -21 -61 0 -29 -31 -73 -51 -73
-28 0 -34 24 -21 92 7 40 22 75 44 104 37 48 61 53 66 12z"/>
<path d="M2160 4951 c0 -7 7 -14 15 -17 8 -4 15 -12 15 -18 0 -7 6 -13 13 -14
6 0 21 -2 31 -4 13 -2 19 3 21 18 1 17 -5 23 -29 27 -17 3 -39 8 -48 12 -11 4
-18 3 -18 -4z"/>
<path d="M2471 4804 c0 -11 3 -14 6 -6 3 7 2 16 -1 19 -3 4 -6 -2 -5 -13z"/>
<path d="M3651 3769 c-24 -5 -46 -10 -48 -12 -2 -3 17 -17 44 -32 39 -24 59
-28 119 -29 40 0 75 2 79 5 11 12 -8 39 -41 59 -37 21 -79 24 -153 9z"/>
</g>
</svg>
