<?xml version="1.0" standalone="no"?>
<!DOCTYPE svg PUBLIC "-//W3C//DTD SVG 20010904//EN"
 "http://www.w3.org/TR/2001/REC-SVG-20010904/DTD/svg10.dtd">
<svg version="1.0" xmlns="http://www.w3.org/2000/svg"
 width="877.000000pt" height="878.000000pt" viewBox="0 0 877.000000 878.000000"
 preserveAspectRatio="xMidYMid meet">

<g transform="translate(0.000000,878.000000) scale(0.100000,-0.100000)"
fill="#000000" stroke="none">
<path d="M0 4390 l0 -4390 4385 0 4385 0 0 4390 0 4390 -4385 0 -4385 0 0
-4390z m2655 1923 c73 -15 219 -17 1613 -20 l1532 -3 0 -255 0 -255 -505 0
-505 0 0 -2025 0 -2025 -260 0 -260 0 0 2025 0 2025 -550 0 -549 0 -48 -58
c-26 -31 -60 -72 -74 -91 l-26 -33 -64 50 c-211 165 -510 221 -794 147 -226
-59 -425 -247 -489 -465 -9 -30 -19 -98 -22 -150 -7 -118 11 -211 62 -318 47
-97 178 -231 312 -320 95 -63 363 -199 527 -267 537 -224 794 -389 970 -623
105 -139 172 -285 211 -452 25 -108 30 -368 10 -490 -43 -255 -162 -478 -349
-656 -246 -234 -532 -348 -907 -361 -320 -11 -561 41 -833 179 -245 125 -443
305 -611 558 -65 98 -71 84 64 157 47 26 140 79 208 119 l122 73 65 -88 c77
-105 206 -230 304 -295 100 -67 245 -133 358 -163 87 -23 117 -27 268 -27 194
-1 256 11 390 74 258 120 415 360 415 635 0 198 -69 347 -231 500 -125 118
-282 210 -579 340 -309 136 -333 147 -465 218 -571 305 -808 622 -831 1112
-22 461 214 872 628 1095 254 136 619 191 893 133z m4089 -69 c3 -26 6 -937 6
-2025 l0 -1979 759 0 758 0 7 -52 c3 -29 6 -144 6 -255 l0 -203 -1030 0 -1030
0 0 2280 0 2280 259 0 258 0 7 -46z"/>
</g>
</svg>
